<svg xmlns="http://www.w3.org/2000/svg" viewBox="0 0 400 280" width="400" height="280" role="img" preserveAspectRatio="xMidYMid slice"><title>Mom in a pink dress at a family lunch</title><clipPath id="c"><rect width="400" height="280"/></clipPath><g clip-path="url(#c)"><rect x="0.0" y="0.0" width="400.0" height="200.0" rx="0" fill="#f3e3c8" /><rect x="0.0" y="200.0" width="400.0" height="80.0" rx="0" fill="#c9a57a" /><rect x="150.0" y="25.0" width="100.0" height="80.0" rx="3" fill="#ffffff" /><rect x="155.0" y="30.0" width="90.0" height="70.0" rx="0" fill="#a8e0c8" /><rect x="198.0" y="30.0" width="4.0" height="70.0" rx="0" fill="#ffffff" /><rect x="155.0" y="63.0" width="90.0" height="4.0" rx="0" fill="#ffffff" /><rect x="20.0" y="60.0" width="50.0" height="60.0" rx="3" fill="#a8c686" /><rect x="26.0" y="66.0" width="38.0" height="48.0" rx="0" fill="#f7f0e3" /><rect x="80.2" y="198.9" width="8.5" height="61.1" rx="2" fill="#3a4a6b" /><rect x="91.3" y="198.9" width="8.5" height="61.1" rx="2" fill="#3a4a6b" /><ellipse cx="84.2" cy="260.0" rx="5.8" ry="2.3" fill="#2a2a2a" /><ellipse cx="95.8" cy="260.0" rx="5.8" ry="2.3" fill="#2a2a2a" /><path d="M74.4 158.59999999999997 L105.6 158.59999999999997 L104.03999999999999 202.8 L75.96000000000001 202.8 Z" fill="#4f7cac" /><path d="M75.18 160.54999999999995 Q67.64 185.24999999999997 67.9 206.70000000000002" fill="none" stroke="#4f7cac" stroke-width="6.5" stroke-linecap="round" stroke-linejoin="round" /><circle cx="67.9" cy="206.7" r="3.6" fill="#b5784e" /><path d="M104.82 160.54999999999995 Q112.36 185.24999999999997 112.1 206.70000000000002" fill="none" stroke="#4f7cac" stroke-width="6.5" stroke-linecap="round" stroke-linejoin="round" /><circle cx="112.1" cy="206.7" r="3.6" fill="#b5784e" /><rect x="86.5" y="149.9" width="7.0" height="9.9" rx="0" fill="#b5784e" /><circle cx="90.0" cy="141.7" r="11.7" fill="#b5784e" /><path d="M78.066 141.11499999999998 Q77.715 126.49 90 127.42599999999999 Q102.285 126.49 101.934 141.11499999999998 Q99.36 134.446 90 133.97799999999998 Q80.64 134.446 78.066 141.11499999999998 Z" fill="#2a1a14" /><circle cx="85.8" cy="142.3" r="1.2" fill="#2a1a14" /><circle cx="94.2" cy="142.3" r="1.2" fill="#2a1a14" /><path d="M86.49 146.38 Q90 149.65599999999998 93.51 146.38" fill="none" stroke="#7a2e2e" stroke-width="1.053" stroke-linecap="round" stroke-linejoin="round" /><path d="M82.98 142.285 a2.925 2.925 0 1 0 5.85 0 a2.925 2.925 0 1 0 -5.85 0 M91.17 142.285 a2.925 2.925 0 1 0 5.85 0 a2.925 2.925 0 1 0 -5.85 0 M88.83 142.285 L91.17 142.285" fill="none" stroke="#2a1a14" stroke-width="0.9359999999999999" stroke-linecap="round" stroke-linejoin="round" /><ellipse cx="299.6" cy="173.0" rx="3.3" ry="7.6" fill="#2a1a14" /><ellipse cx="320.4" cy="173.0" rx="3.3" ry="7.6" fill="#2a1a14" /><rect x="302.1" y="210.7" width="6.8" height="49.3" rx="2" fill="#3a4a6b" /><rect x="311.1" y="210.7" width="6.8" height="49.3" rx="2" fill="#3a4a6b" /><ellipse cx="305.3" cy="260.0" rx="4.7" ry="1.9" fill="#2a2a2a" /><ellipse cx="314.7" cy="260.0" rx="4.7" ry="1.9" fill="#2a2a2a" /><path d="M297.4 178.09999999999997 L322.6 178.09999999999997 L321.34 213.8 L298.66 213.8 Z" fill="#7ed38f" /><path d="M298.03 179.67499999999995 Q291.94 199.62499999999997 292.15 216.95000000000002" fill="none" stroke="#7ed38f" stroke-width="5.25" stroke-linecap="round" stroke-linejoin="round" /><circle cx="292.1" cy="217.0" r="2.9" fill="#d9a07a" /><path d="M321.97 179.67499999999995 Q328.06 199.62499999999997 327.85 216.95000000000002" fill="none" stroke="#7ed38f" stroke-width="5.25" stroke-linecap="round" stroke-linejoin="round" /><circle cx="327.9" cy="217.0" r="2.9" fill="#d9a07a" /><rect x="307.2" y="171.1" width="5.7" height="8.0" rx="0" fill="#d9a07a" /><circle cx="310.0" cy="164.4" r="9.4" fill="#d9a07a" /><path d="M300.0775 165.86749999999998 Q299.605 152.165 310 153.29899999999998 Q320.395 152.165 319.9225 165.86749999999998 Q317.0875 159.725 310 159.2525 Q302.9125 159.725 300.0775 165.86749999999998 Z" fill="#2a1a14" /><circle cx="306.6" cy="164.9" r="0.9" fill="#2a1a14" /><circle cx="313.4" cy="164.9" r="0.9" fill="#2a1a14" /><path d="M307.165 168.23 Q310 170.87599999999998 312.835 168.23" fill="none" stroke="#7a2e2e" stroke-width="0.8504999999999999" stroke-linecap="round" stroke-linejoin="round" /><rect x="191.0" y="225.0" width="6.8" height="37.0" rx="2" fill="#c98a5e" /><rect x="202.2" y="225.0" width="6.8" height="37.0" rx="2" fill="#c98a5e" /><ellipse cx="193.2" cy="262.0" rx="6.8" ry="2.7" fill="#2a2a2a" /><ellipse cx="206.8" cy="262.0" rx="6.8" ry="2.7" fill="#2a2a2a" /><path d="M182.0 145.0 L218.0 145.0 L215.3 191.5 L184.7 191.5 Z" fill="#e94f95" /><path d="M184.7 191.5 L215.3 191.5 L233.0 229.0 L167.0 229.0 Z" fill="#e94f95" /><rect x="167.0" y="226.0" width="66.0" height="3.0" rx="0" fill="#ffd166" /><rect x="184.7" y="189.2" width="30.6" height="3.8" rx="0" fill="#ffd166" /><path d="M182.9 147.25 Q192.2 169.0 192.5 187.0" fill="none" stroke="#e94f95" stroke-width="7.5" stroke-linecap="round" stroke-linejoin="round" /><circle cx="192.5" cy="187.0" r="4.1" fill="#c98a5e" /><path d="M217.1 147.25 Q207.8 169.0 207.5 187.0" fill="none" stroke="#e94f95" stroke-width="7.5" stroke-linecap="round" stroke-linejoin="round" /><circle cx="207.5" cy="187.0" r="4.1" fill="#c98a5e" /><rect x="195.9" y="134.9" width="8.1" height="11.4" rx="0" fill="#c98a5e" /><circle cx="200.0" cy="125.5" r="13.5" fill="#c98a5e" /><path d="M185.825 127.525 Q185.15 107.95 200 109.57 Q214.85 107.95 214.175 127.525 Q210.125 118.75 200 118.075 Q189.875 118.75 185.825 127.525 Z" fill="#2a1a14" /><circle cx="210.1" cy="114.0" r="6.1" fill="#2a1a14" /><circle cx="195.1" cy="126.2" r="1.4" fill="#2a1a14" /><circle cx="204.9" cy="126.2" r="1.4" fill="#2a1a14" /><path d="M195.95 130.9 Q200 134.68 204.05 130.9" fill="none" stroke="#7a2e2e" stroke-width="1.2149999999999999" stroke-linecap="round" stroke-linejoin="round" /><circle cx="200.0" cy="121.5" r="1.1" fill="#d6214f" /><circle cx="186.5" cy="131.6" r="1.8" fill="#ffd166" /><circle cx="213.5" cy="131.6" r="1.8" fill="#ffd166" /><rect x="0.0" y="205.0" width="400.0" height="75.0" rx="0" fill="#8a5a3a" /><rect x="0.0" y="205.0" width="400.0" height="8.0" rx="0" fill="#a8704a" /><rect x="20.0" y="213.0" width="360.0" height="10.0" rx="2" fill="#f5f1ea" /><ellipse cx="70.0" cy="222.0" rx="26.0" ry="7.0" fill="#ffffff" /><ellipse cx="70.0" cy="220.0" rx="16.0" ry="4.0" fill="#f0c46a" /><ellipse cx="160.0" cy="222.0" rx="26.0" ry="7.0" fill="#ffffff" /><ellipse cx="160.0" cy="220.0" rx="16.0" ry="4.0" fill="#f0c46a" /><ellipse cx="250.0" cy="222.0" rx="26.0" ry="7.0" fill="#ffffff" /><ellipse cx="250.0" cy="220.0" rx="16.0" ry="4.0" fill="#f0c46a" /><ellipse cx="340.0" cy="222.0" rx="26.0" ry="7.0" fill="#ffffff" /><ellipse cx="340.0" cy="220.0" rx="16.0" ry="4.0" fill="#f0c46a" /><rect x="195.0" y="196.0" width="12.0" height="20.0" rx="2" fill="#8fd3e8" /></g></svg>