<svg xmlns="http://www.w3.org/2000/svg" viewBox="0 0 400 280" width="400" height="280" role="img" preserveAspectRatio="xMidYMid slice"><title>Meera with a friend&#39;s puppy</title><clipPath id="c"><rect width="400" height="280"/></clipPath><g clip-path="url(#c)"><rect x="0.0" y="0.0" width="400.0" height="280.0" rx="0" fill="#cfe9f5" /><rect x="0.0" y="170.0" width="400.0" height="110.0" rx="0" fill="#8cc56e" /><rect x="54.4" y="119.0" width="11.2" height="56.0" rx="0" fill="#6b4a32" /><circle cx="60.0" cy="102.2" r="33.6" fill="#3f8f4f" /><circle cx="37.6" cy="119.0" r="21.0" fill="#3f8f4f" /><circle cx="82.4" cy="119.0" r="21.0" fill="#3f8f4f" /><rect x="345.2" y="127.0" width="9.6" height="48.0" rx="0" fill="#6b4a32" /><circle cx="350.0" cy="112.6" r="28.8" fill="#3f8f4f" /><circle cx="330.8" cy="127.0" r="18.0" fill="#3f8f4f" /><circle cx="369.2" cy="127.0" r="18.0" fill="#3f8f4f" /><circle cx="330.0" cy="40.0" r="20.0" fill="#fff4c2" /><rect x="162.4" y="105.6" width="35.3" height="41.0" rx="12.600000000000001" fill="#2a1a14" /><rect x="166.9" y="185.8" width="11.4" height="82.2" rx="2" fill="#4f6b9a" /><rect x="181.8" y="185.8" width="11.4" height="82.2" rx="2" fill="#4f6b9a" /><ellipse cx="172.1" cy="268.0" rx="7.9" ry="3.1" fill="#2a2a2a" /><ellipse cx="187.9" cy="268.0" rx="7.9" ry="3.1" fill="#2a2a2a" /><path d="M159.0 131.5 L201.0 131.5 L198.9 191.0 L161.1 191.0 Z" fill="#ffffff" /><path d="M160.05 134.125 Q202.775 174.25 235 210" fill="none" stroke="#ffffff" stroke-width="8.75" stroke-linecap="round" stroke-linejoin="round" /><circle cx="235.0" cy="210.0" r="4.8" fill="#c98a5e" /><path d="M199.95 134.125 Q225.225 169.25 240 200" fill="none" stroke="#ffffff" stroke-width="8.75" stroke-linecap="round" stroke-linejoin="round" /><circle cx="240.0" cy="200.0" r="4.8" fill="#c98a5e" /><rect x="175.3" y="119.8" width="9.4" height="13.3" rx="0" fill="#c98a5e" /><circle cx="180.0" cy="108.8" r="15.8" fill="#c98a5e" /><path d="M163.4625 111.1125 Q162.675 88.275 180 90.165 Q197.325 88.275 196.5375 111.1125 Q191.8125 100.875 180 100.0875 Q168.1875 100.875 163.4625 111.1125 Z" fill="#2a1a14" /><circle cx="174.3" cy="109.5" r="1.6" fill="#2a1a14" /><circle cx="185.7" cy="109.5" r="1.6" fill="#2a1a14" /><path d="M175.275 115.05 Q180 119.46000000000001 184.725 115.05" fill="none" stroke="#7a2e2e" stroke-width="1.4175" stroke-linecap="round" stroke-linejoin="round" /><circle cx="164.2" cy="115.8" r="2.0" fill="#ffd166" /><circle cx="195.8" cy="115.8" r="2.0" fill="#ffd166" /><ellipse cx="270.0" cy="242.4" rx="30.8" ry="16.8" fill="#d9a066" /><rect x="247.6" y="250.8" width="8.4" height="14.0" rx="2" fill="#d9a066" /><rect x="284.0" y="250.8" width="8.4" height="14.0" rx="2" fill="#d9a066" /><path d="M298.0 236.8 Q312.0 220.0 309.2 211.6" fill="none" stroke="#d9a066" stroke-width="5.6" stroke-linecap="round" stroke-linejoin="round" /><circle cx="239.2" cy="222.8" r="18.2" fill="#d9a066" /><ellipse cx="225.2" cy="228.4" rx="8.4" ry="6.3" fill="#f0d2b0" /><circle cx="218.2" cy="227.0" r="3.4" fill="#2a1a14" /><ellipse cx="250.4" cy="217.2" rx="7.0" ry="12.6" fill="#8a5a2b" /><circle cx="236.4" cy="218.6" r="2.5" fill="#2a1a14" /><path d="M222.4 232.6 Q226.6 241.0 228.0 234.0" fill="#e8707a" /><path d="M240 200 Q260 215 248 230" fill="none" stroke="#c0392b" stroke-width="2" stroke-linecap="round" stroke-linejoin="round" /></g></svg>