<svg xmlns="http://www.w3.org/2000/svg" viewBox="0 0 400 280" width="400" height="280" role="img" preserveAspectRatio="xMidYMid slice"><title>Packed up for a weekend trek</title><clipPath id="c"><rect width="400" height="280"/></clipPath><g clip-path="url(#c)"><rect x="0.0" y="0.0" width="400.0" height="280.0" rx="0" fill="#a8d8f0" /><circle cx="330.0" cy="50.0" r="18.0" fill="#fff4c2" /><path d="M0 190 L70 90 L130 160 L200 70 L270 150 L330 100 L400 170 L400 280 L0 280 Z" fill="#7a8fb0" /><path d="M200 70 L222 100 L210 96 L198 108 L188 95 L178 100 Z" fill="#ffffff" /><path d="M0 220 L90 150 L170 200 L260 140 L340 190 L400 165 L400 280 L0 280 Z" fill="#5f8a5a" /><path d="M0 280 L0 245 Q120 225 200 238 Q300 252 400 230 L400 280 Z" fill="#86a96a" /><path d="M150 280 Q190 250 230 240 Q260 236 300 232 L310 236 Q262 244 238 252 Q206 264 196 280 Z" fill="#c8ad84" /><rect x="199.6" y="112.0" width="44.8" height="73.6" rx="6" fill="#d1495b" /><rect x="204.4" y="150.4" width="35.2" height="25.6" rx="4" fill="#a33445" /><rect x="198.0" y="99.2" width="48.0" height="16.0" rx="4" fill="#6b8f3a" /><rect x="182.4" y="102.6" width="35.3" height="41.0" rx="12.600000000000001" fill="#2a1a14" /><rect x="186.9" y="182.8" width="11.4" height="82.2" rx="2" fill="#4a5a3a" /><rect x="201.8" y="182.8" width="11.4" height="82.2" rx="2" fill="#4a5a3a" /><ellipse cx="192.1" cy="265.0" rx="7.9" ry="3.1" fill="#2a2a2a" /><ellipse cx="207.9" cy="265.0" rx="7.9" ry="3.1" fill="#2a2a2a" /><path d="M179.0 128.5 L221.0 128.5 L218.9 188.0 L181.1 188.0 Z" fill="#f2c14e" /><path d="M180.05 131.125 Q172.525 157.375 175.5 179.25" fill="none" stroke="#f2c14e" stroke-width="8.75" stroke-linecap="round" stroke-linejoin="round" /><circle cx="175.5" cy="179.2" r="4.8" fill="#c98a5e" /><path d="M219.95 131.125 Q227.475 157.375 224.5 179.25" fill="none" stroke="#f2c14e" stroke-width="8.75" stroke-linecap="round" stroke-linejoin="round" /><circle cx="224.5" cy="179.2" r="4.8" fill="#c98a5e" /><rect x="195.3" y="116.8" width="9.4" height="13.3" rx="0" fill="#c98a5e" /><circle cx="200.0" cy="105.8" r="15.8" fill="#c98a5e" /><path d="M183.4625 108.1125 Q182.675 85.275 200 87.165 Q217.325 85.275 216.5375 108.1125 Q211.8125 97.875 200 97.0875 Q188.1875 97.875 183.4625 108.1125 Z" fill="#2a1a14" /><circle cx="194.3" cy="106.5" r="1.6" fill="#2a1a14" /><circle cx="205.7" cy="106.5" r="1.6" fill="#2a1a14" /><path d="M195.275 112.05 Q200 116.46000000000001 204.725 112.05" fill="none" stroke="#7a2e2e" stroke-width="1.4175" stroke-linecap="round" stroke-linejoin="round" /><circle cx="184.2" cy="112.8" r="2.0" fill="#ffd166" /><circle cx="215.8" cy="112.8" r="2.0" fill="#ffd166" /><path d="M182 128 L190 190 M218 128 L210 190" fill="none" stroke="#2a2a2a" stroke-width="4" stroke-linecap="round" stroke-linejoin="round" /><path d="M170 90 Q200 70 230 90 L234 96 L166 96 Z" fill="#3fb8a8" /><line x1="255.0" y1="260.0" x2="268.0" y2="150.0" stroke="#6b4a32" stroke-width="3" stroke-linecap="round" /></g></svg>