<svg xmlns="http://www.w3.org/2000/svg" viewBox="0 0 400 280" width="400" height="280" role="img" preserveAspectRatio="xMidYMid slice"><title>Office lunch biryani</title><clipPath id="c"><rect width="400" height="280"/></clipPath><g clip-path="url(#c)"><rect x="0.0" y="0.0" width="400.0" height="205.0" rx="0" fill="#e8ecf1" /><rect x="0.0" y="205.0" width="400.0" height="75.0" rx="0" fill="#b9c2cc" /><rect x="20.0" y="30.0" width="110.0" height="90.0" rx="3" fill="#ffffff" /><rect x="25.0" y="35.0" width="100.0" height="80.0" rx="0" fill="#bfe3f7" /><rect x="73.0" y="35.0" width="4.0" height="80.0" rx="0" fill="#ffffff" /><rect x="25.0" y="73.0" width="100.0" height="4.0" rx="0" fill="#ffffff" /><rect x="270.0" y="30.0" width="110.0" height="90.0" rx="3" fill="#ffffff" /><rect x="275.0" y="35.0" width="100.0" height="80.0" rx="0" fill="#bfe3f7" /><rect x="323.0" y="35.0" width="4.0" height="80.0" rx="0" fill="#ffffff" /><rect x="275.0" y="73.0" width="100.0" height="4.0" rx="0" fill="#ffffff" /><circle cx="60.0" cy="70.0" r="0.0" fill="#fff" /><rect x="79.5" y="149.2" width="9.1" height="65.8" rx="2" fill="#3a4a6b" /><rect x="91.4" y="149.2" width="9.1" height="65.8" rx="2" fill="#3a4a6b" /><ellipse cx="83.7" cy="215.0" rx="6.3" ry="2.5" fill="#2a2a2a" /><ellipse cx="96.3" cy="215.0" rx="6.3" ry="2.5" fill="#2a2a2a" /><path d="M73.2 105.79999999999998 L106.8 105.79999999999998 L105.12 153.39999999999998 L74.88 153.39999999999998 Z" fill="#4f7cac" /><path d="M74.04 107.89999999999998 Q82.72000000000001 128.2 83.0 145.0" fill="none" stroke="#4f7cac" stroke-width="7.0" stroke-linecap="round" stroke-linejoin="round" /><circle cx="83.0" cy="145.0" r="3.9" fill="#b5784e" /><path d="M105.96 107.89999999999998 Q97.27999999999999 128.2 97.0 145.0" fill="none" stroke="#4f7cac" stroke-width="7.0" stroke-linecap="round" stroke-linejoin="round" /><circle cx="97.0" cy="145.0" r="3.9" fill="#b5784e" /><rect x="86.2" y="96.4" width="7.6" height="10.6" rx="0" fill="#b5784e" /><circle cx="90.0" cy="87.6" r="12.6" fill="#b5784e" /><path d="M77.148 86.97 Q76.77 71.22 90 72.228 Q103.23 71.22 102.852 86.97 Q100.08 79.788 90 79.28399999999999 Q79.92 79.788 77.148 86.97 Z" fill="#2a1a14" /><circle cx="85.5" cy="88.2" r="1.3" fill="#2a1a14" /><circle cx="94.5" cy="88.2" r="1.3" fill="#2a1a14" /><path d="M86.22 92.64 Q90 96.16799999999999 93.78 92.64" fill="none" stroke="#7a2e2e" stroke-width="1.134" stroke-linecap="round" stroke-linejoin="round" /><path d="M82.44 88.22999999999999 a3.15 3.15 0 1 0 6.3 0 a3.15 3.15 0 1 0 -6.3 0 M91.26 88.22999999999999 a3.15 3.15 0 1 0 6.3 0 a3.15 3.15 0 1 0 -6.3 0 M88.74 88.22999999999999 L91.26 88.22999999999999" fill="none" stroke="#2a1a14" stroke-width="1.008" stroke-linecap="round" stroke-linejoin="round" /><rect x="185.9" y="82.1" width="28.2" height="32.8" rx="10.08" fill="#2a1a14" /><rect x="189.5" y="146.2" width="9.1" height="65.8" rx="2" fill="#3a4a6b" /><rect x="201.4" y="146.2" width="9.1" height="65.8" rx="2" fill="#3a4a6b" /><ellipse cx="193.7" cy="212.0" rx="6.3" ry="2.5" fill="#2a2a2a" /><ellipse cx="206.3" cy="212.0" rx="6.3" ry="2.5" fill="#2a2a2a" /><path d="M183.2 102.79999999999998 L216.8 102.79999999999998 L215.12 150.39999999999998 L184.88 150.39999999999998 Z" fill="#e85d75" /><path d="M184.04 104.89999999999998 Q175.92000000000002 131.5 176.2 154.6" fill="none" stroke="#e85d75" stroke-width="7.0" stroke-linecap="round" stroke-linejoin="round" /><circle cx="176.2" cy="154.6" r="3.9" fill="#c98a5e" /><path d="M215.96 104.89999999999998 Q226.18 91.46 228.0 74.52" fill="none" stroke="#e85d75" stroke-width="7.0" stroke-linecap="round" stroke-linejoin="round" /><circle cx="228.0" cy="74.5" r="3.9" fill="#c98a5e" /><rect x="196.2" y="93.4" width="7.6" height="10.6" rx="0" fill="#c98a5e" /><circle cx="200.0" cy="84.6" r="12.6" fill="#c98a5e" /><path d="M186.77 86.49 Q186.14 68.22 200 69.732 Q213.86 68.22 213.23 86.49 Q209.45 78.3 200 77.66999999999999 Q190.55 78.3 186.77 86.49 Z" fill="#2a1a14" /><circle cx="195.5" cy="85.2" r="1.3" fill="#2a1a14" /><circle cx="204.5" cy="85.2" r="1.3" fill="#2a1a14" /><path d="M196.22 89.64 Q200 93.16799999999999 203.78 89.64" fill="none" stroke="#7a2e2e" stroke-width="1.134" stroke-linecap="round" stroke-linejoin="round" /><circle cx="187.4" cy="90.3" r="1.6" fill="#ffd166" /><circle cx="212.6" cy="90.3" r="1.6" fill="#ffd166" /><rect x="299.5" y="149.2" width="9.1" height="65.8" rx="2" fill="#3a4a6b" /><rect x="311.4" y="149.2" width="9.1" height="65.8" rx="2" fill="#3a4a6b" /><ellipse cx="303.7" cy="215.0" rx="6.3" ry="2.5" fill="#2a2a2a" /><ellipse cx="316.3" cy="215.0" rx="6.3" ry="2.5" fill="#2a2a2a" /><path d="M293.2 105.79999999999998 L326.8 105.79999999999998 L325.12 153.39999999999998 L294.88 153.39999999999998 Z" fill="#7ed38f" /><path d="M294.04 107.89999999999998 Q302.71999999999997 128.2 303.0 145.0" fill="none" stroke="#7ed38f" stroke-width="7.0" stroke-linecap="round" stroke-linejoin="round" /><circle cx="303.0" cy="145.0" r="3.9" fill="#a8693f" /><path d="M325.96 107.89999999999998 Q317.28000000000003 128.2 317.0 145.0" fill="none" stroke="#7ed38f" stroke-width="7.0" stroke-linecap="round" stroke-linejoin="round" /><circle cx="317.0" cy="145.0" r="3.9" fill="#a8693f" /><rect x="306.2" y="96.4" width="7.6" height="10.6" rx="0" fill="#a8693f" /><circle cx="310.0" cy="87.6" r="12.6" fill="#a8693f" /><path d="M297.148 86.97 Q296.77 71.22 310 72.228 Q323.23 71.22 322.852 86.97 Q320.08 79.788 310 79.28399999999999 Q299.92 79.788 297.148 86.97 Z" fill="#2a1a14" /><circle cx="305.5" cy="88.2" r="1.3" fill="#2a1a14" /><circle cx="314.5" cy="88.2" r="1.3" fill="#2a1a14" /><path d="M306.22 92.64 Q310 96.16799999999999 313.78 92.64" fill="none" stroke="#7a2e2e" stroke-width="1.134" stroke-linecap="round" stroke-linejoin="round" /><path d="M299.29 90.11999999999999 Q301.18 102.08999999999999 310 101.46 Q318.82 102.08999999999999 320.71 90.11999999999999 Q310 99.57 299.29 90.11999999999999 Z" fill="#2a1a14" /><rect x="0.0" y="175.0" width="400.0" height="105.0" rx="0" fill="#d6dde5" /><rect x="0.0" y="175.0" width="400.0" height="6.0" rx="0" fill="#b9c2cc" /><ellipse cx="80.0" cy="230.0" rx="45.9" ry="14.9" fill="#e9e4dc" /><ellipse cx="80.0" cy="229.0" rx="37.8" ry="10.8" fill="#f5f1ea" /><path d="M47.599999999999994 229 Q80 197.6 112.4 229 Z" fill="#f0c46a" /><ellipse cx="66.5" cy="221.9" rx="4.7" ry="2.2" fill="#ffffff" /><ellipse cx="88.1" cy="216.5" rx="4.7" ry="2.2" fill="#e08a2c" /><ellipse cx="96.2" cy="224.6" rx="4.7" ry="2.2" fill="#ffffff" /><ellipse cx="77.3" cy="213.8" rx="4.7" ry="2.2" fill="#ffffff" /><ellipse cx="61.1" cy="225.9" rx="4.7" ry="2.2" fill="#e08a2c" /><ellipse cx="82.7" cy="223.2" rx="4.7" ry="2.2" fill="#ffffff" /><ellipse cx="90.8" cy="220.6" rx="8.1" ry="6.1" fill="#a0522d" /><circle cx="71.9" cy="225.9" r="2.7" fill="#3f8f4f" /><circle cx="98.9" cy="227.3" r="2.4" fill="#3f8f4f" /><ellipse cx="200.0" cy="230.0" rx="45.9" ry="14.9" fill="#e9e4dc" /><ellipse cx="200.0" cy="229.0" rx="37.8" ry="10.8" fill="#f5f1ea" /><path d="M167.6 229 Q200 197.6 232.4 229 Z" fill="#f0c46a" /><ellipse cx="186.5" cy="221.9" rx="4.7" ry="2.2" fill="#ffffff" /><ellipse cx="208.1" cy="216.5" rx="4.7" ry="2.2" fill="#e08a2c" /><ellipse cx="216.2" cy="224.6" rx="4.7" ry="2.2" fill="#ffffff" /><ellipse cx="197.3" cy="213.8" rx="4.7" ry="2.2" fill="#ffffff" /><ellipse cx="181.1" cy="225.9" rx="4.7" ry="2.2" fill="#e08a2c" /><ellipse cx="202.7" cy="223.2" rx="4.7" ry="2.2" fill="#ffffff" /><ellipse cx="210.8" cy="220.6" rx="8.1" ry="6.1" fill="#a0522d" /><circle cx="191.9" cy="225.9" r="2.7" fill="#3f8f4f" /><circle cx="218.9" cy="227.3" r="2.4" fill="#3f8f4f" /><ellipse cx="320.0" cy="230.0" rx="45.9" ry="14.9" fill="#e9e4dc" /><ellipse cx="320.0" cy="229.0" rx="37.8" ry="10.8" fill="#f5f1ea" /><path d="M287.6 229 Q320 197.6 352.4 229 Z" fill="#f0c46a" /><ellipse cx="306.5" cy="221.9" rx="4.7" ry="2.2" fill="#ffffff" /><ellipse cx="328.1" cy="216.5" rx="4.7" ry="2.2" fill="#e08a2c" /><ellipse cx="336.2" cy="224.6" rx="4.7" ry="2.2" fill="#ffffff" /><ellipse cx="317.3" cy="213.8" rx="4.7" ry="2.2" fill="#ffffff" /><ellipse cx="301.1" cy="225.9" rx="4.7" ry="2.2" fill="#e08a2c" /><ellipse cx="322.7" cy="223.2" rx="4.7" ry="2.2" fill="#ffffff" /><ellipse cx="330.8" cy="220.6" rx="8.1" ry="6.1" fill="#a0522d" /><circle cx="311.9" cy="225.9" r="2.7" fill="#3f8f4f" /><circle cx="338.9" cy="227.3" r="2.4" fill="#3f8f4f" /><rect x="150.0" y="186.0" width="22.0" height="26.0" rx="3" fill="#ff9f1c" /><rect x="225.0" y="186.0" width="22.0" height="26.0" rx="3" fill="#8fd3e8" /></g></svg>