<svg xmlns="http://www.w3.org/2000/svg" viewBox="0 0 400 280" width="400" height="280" role="img" preserveAspectRatio="xMidYMid slice"><title>Watching the rain from the balcony</title><clipPath id="c"><rect width="400" height="280"/></clipPath><g clip-path="url(#c)"><rect x="0.0" y="0.0" width="400.0" height="280.0" rx="0" fill="#7f97a8" /><rect x="0.0" y="0.0" width="400.0" height="120.0" rx="0" fill="#94a9b8" /><path d="M0 160 L0 90 L50 90 L50 60 L95 60 L95 120 L150 120 L150 160 Z" fill="#6a7f8f" /><path d="M260 160 L260 80 L310 80 L310 100 L400 100 L400 160 Z" fill="#6a7f8f" /><line x1="62.0" y1="34.0" x2="59.0" y2="46.0" stroke="#e3eef7" stroke-width="1.2" stroke-linecap="round" opacity="0.8"/><line x1="115.0" y1="71.0" x2="112.0" y2="83.0" stroke="#e3eef7" stroke-width="1.2" stroke-linecap="round" opacity="0.8"/><line x1="168.0" y1="108.0" x2="165.0" y2="120.0" stroke="#e3eef7" stroke-width="1.2" stroke-linecap="round" opacity="0.8"/><line x1="221.0" y1="145.0" x2="218.0" y2="157.0" stroke="#e3eef7" stroke-width="1.2" stroke-linecap="round" opacity="0.8"/><line x1="274.0" y1="182.0" x2="271.0" y2="194.0" stroke="#e3eef7" stroke-width="1.2" stroke-linecap="round" opacity="0.8"/><line x1="327.0" y1="33.0" x2="324.0" y2="45.0" stroke="#e3eef7" stroke-width="1.2" stroke-linecap="round" opacity="0.8"/><line x1="380.0" y1="70.0" x2="377.0" y2="82.0" stroke="#e3eef7" stroke-width="1.2" stroke-linecap="round" opacity="0.8"/><line x1="33.0" y1="107.0" x2="30.0" y2="119.0" stroke="#e3eef7" stroke-width="1.2" stroke-linecap="round" opacity="0.8"/><line x1="86.0" y1="144.0" x2="83.0" y2="156.0" stroke="#e3eef7" stroke-width="1.2" stroke-linecap="round" opacity="0.8"/><line x1="139.0" y1="181.0" x2="136.0" y2="193.0" stroke="#e3eef7" stroke-width="1.2" stroke-linecap="round" opacity="0.8"/><line x1="192.0" y1="32.0" x2="189.0" y2="44.0" stroke="#e3eef7" stroke-width="1.2" stroke-linecap="round" opacity="0.8"/><line x1="245.0" y1="69.0" x2="242.0" y2="81.0" stroke="#e3eef7" stroke-width="1.2" stroke-linecap="round" opacity="0.8"/><line x1="298.0" y1="106.0" x2="295.0" y2="118.0" stroke="#e3eef7" stroke-width="1.2" stroke-linecap="round" opacity="0.8"/><line x1="351.0" y1="143.0" x2="348.0" y2="155.0" stroke="#e3eef7" stroke-width="1.2" stroke-linecap="round" opacity="0.8"/><line x1="4.0" y1="180.0" x2="1.0" y2="192.0" stroke="#e3eef7" stroke-width="1.2" stroke-linecap="round" opacity="0.8"/><line x1="57.0" y1="31.0" x2="54.0" y2="43.0" stroke="#e3eef7" stroke-width="1.2" stroke-linecap="round" opacity="0.8"/><line x1="110.0" y1="68.0" x2="107.0" y2="80.0" stroke="#e3eef7" stroke-width="1.2" stroke-linecap="round" opacity="0.8"/><line x1="163.0" y1="105.0" x2="160.0" y2="117.0" stroke="#e3eef7" stroke-width="1.2" stroke-linecap="round" opacity="0.8"/><line x1="216.0" y1="142.0" x2="213.0" y2="154.0" stroke="#e3eef7" stroke-width="1.2" stroke-linecap="round" opacity="0.8"/><line x1="269.0" y1="179.0" x2="266.0" y2="191.0" stroke="#e3eef7" stroke-width="1.2" stroke-linecap="round" opacity="0.8"/><line x1="322.0" y1="30.0" x2="319.0" y2="42.0" stroke="#e3eef7" stroke-width="1.2" stroke-linecap="round" opacity="0.8"/><line x1="375.0" y1="67.0" x2="372.0" y2="79.0" stroke="#e3eef7" stroke-width="1.2" stroke-linecap="round" opacity="0.8"/><line x1="28.0" y1="104.0" x2="25.0" y2="116.0" stroke="#e3eef7" stroke-width="1.2" stroke-linecap="round" opacity="0.8"/><line x1="81.0" y1="141.0" x2="78.0" y2="153.0" stroke="#e3eef7" stroke-width="1.2" stroke-linecap="round" opacity="0.8"/><line x1="134.0" y1="178.0" x2="131.0" y2="190.0" stroke="#e3eef7" stroke-width="1.2" stroke-linecap="round" opacity="0.8"/><line x1="187.0" y1="29.0" x2="184.0" y2="41.0" stroke="#e3eef7" stroke-width="1.2" stroke-linecap="round" opacity="0.8"/><line x1="240.0" y1="66.0" x2="237.0" y2="78.0" stroke="#e3eef7" stroke-width="1.2" stroke-linecap="round" opacity="0.8"/><line x1="293.0" y1="103.0" x2="290.0" y2="115.0" stroke="#e3eef7" stroke-width="1.2" stroke-linecap="round" opacity="0.8"/><line x1="346.0" y1="140.0" x2="343.0" y2="152.0" stroke="#e3eef7" stroke-width="1.2" stroke-linecap="round" opacity="0.8"/><line x1="399.0" y1="177.0" x2="396.0" y2="189.0" stroke="#e3eef7" stroke-width="1.2" stroke-linecap="round" opacity="0.8"/><line x1="52.0" y1="28.0" x2="49.0" y2="40.0" stroke="#e3eef7" stroke-width="1.2" stroke-linecap="round" opacity="0.8"/><line x1="105.0" y1="65.0" x2="102.0" y2="77.0" stroke="#e3eef7" stroke-width="1.2" stroke-linecap="round" opacity="0.8"/><line x1="158.0" y1="102.0" x2="155.0" y2="114.0" stroke="#e3eef7" stroke-width="1.2" stroke-linecap="round" opacity="0.8"/><line x1="211.0" y1="139.0" x2="208.0" y2="151.0" stroke="#e3eef7" stroke-width="1.2" stroke-linecap="round" opacity="0.8"/><line x1="264.0" y1="176.0" x2="261.0" y2="188.0" stroke="#e3eef7" stroke-width="1.2" stroke-linecap="round" opacity="0.8"/><line x1="317.0" y1="27.0" x2="314.0" y2="39.0" stroke="#e3eef7" stroke-width="1.2" stroke-linecap="round" opacity="0.8"/><line x1="370.0" y1="64.0" x2="367.0" y2="76.0" stroke="#e3eef7" stroke-width="1.2" stroke-linecap="round" opacity="0.8"/><line x1="23.0" y1="101.0" x2="20.0" y2="113.0" stroke="#e3eef7" stroke-width="1.2" stroke-linecap="round" opacity="0.8"/><line x1="76.0" y1="138.0" x2="73.0" y2="150.0" stroke="#e3eef7" stroke-width="1.2" stroke-linecap="round" opacity="0.8"/><line x1="129.0" y1="175.0" x2="126.0" y2="187.0" stroke="#e3eef7" stroke-width="1.2" stroke-linecap="round" opacity="0.8"/><line x1="182.0" y1="26.0" x2="179.0" y2="38.0" stroke="#e3eef7" stroke-width="1.2" stroke-linecap="round" opacity="0.8"/><line x1="235.0" y1="63.0" x2="232.0" y2="75.0" stroke="#e3eef7" stroke-width="1.2" stroke-linecap="round" opacity="0.8"/><line x1="288.0" y1="100.0" x2="285.0" y2="112.0" stroke="#e3eef7" stroke-width="1.2" stroke-linecap="round" opacity="0.8"/><line x1="341.0" y1="137.0" x2="338.0" y2="149.0" stroke="#e3eef7" stroke-width="1.2" stroke-linecap="round" opacity="0.8"/><line x1="394.0" y1="174.0" x2="391.0" y2="186.0" stroke="#e3eef7" stroke-width="1.2" stroke-linecap="round" opacity="0.8"/><line x1="47.0" y1="25.0" x2="44.0" y2="37.0" stroke="#e3eef7" stroke-width="1.2" stroke-linecap="round" opacity="0.8"/><line x1="100.0" y1="62.0" x2="97.0" y2="74.0" stroke="#e3eef7" stroke-width="1.2" stroke-linecap="round" opacity="0.8"/><line x1="153.0" y1="99.0" x2="150.0" y2="111.0" stroke="#e3eef7" stroke-width="1.2" stroke-linecap="round" opacity="0.8"/><line x1="206.0" y1="136.0" x2="203.0" y2="148.0" stroke="#e3eef7" stroke-width="1.2" stroke-linecap="round" opacity="0.8"/><line x1="259.0" y1="173.0" x2="256.0" y2="185.0" stroke="#e3eef7" stroke-width="1.2" stroke-linecap="round" opacity="0.8"/><line x1="312.0" y1="24.0" x2="309.0" y2="36.0" stroke="#e3eef7" stroke-width="1.2" stroke-linecap="round" opacity="0.8"/><line x1="365.0" y1="61.0" x2="362.0" y2="73.0" stroke="#e3eef7" stroke-width="1.2" stroke-linecap="round" opacity="0.8"/><line x1="18.0" y1="98.0" x2="15.0" y2="110.0" stroke="#e3eef7" stroke-width="1.2" stroke-linecap="round" opacity="0.8"/><line x1="71.0" y1="135.0" x2="68.0" y2="147.0" stroke="#e3eef7" stroke-width="1.2" stroke-linecap="round" opacity="0.8"/><line x1="124.0" y1="172.0" x2="121.0" y2="184.0" stroke="#e3eef7" stroke-width="1.2" stroke-linecap="round" opacity="0.8"/><line x1="177.0" y1="23.0" x2="174.0" y2="35.0" stroke="#e3eef7" stroke-width="1.2" stroke-linecap="round" opacity="0.8"/><line x1="230.0" y1="60.0" x2="227.0" y2="72.0" stroke="#e3eef7" stroke-width="1.2" stroke-linecap="round" opacity="0.8"/><line x1="283.0" y1="97.0" x2="280.0" y2="109.0" stroke="#e3eef7" stroke-width="1.2" stroke-linecap="round" opacity="0.8"/><line x1="336.0" y1="134.0" x2="333.0" y2="146.0" stroke="#e3eef7" stroke-width="1.2" stroke-linecap="round" opacity="0.8"/><line x1="389.0" y1="171.0" x2="386.0" y2="183.0" stroke="#e3eef7" stroke-width="1.2" stroke-linecap="round" opacity="0.8"/><line x1="42.0" y1="22.0" x2="39.0" y2="34.0" stroke="#e3eef7" stroke-width="1.2" stroke-linecap="round" opacity="0.8"/><line x1="95.0" y1="59.0" x2="92.0" y2="71.0" stroke="#e3eef7" stroke-width="1.2" stroke-linecap="round" opacity="0.8"/><line x1="148.0" y1="96.0" x2="145.0" y2="108.0" stroke="#e3eef7" stroke-width="1.2" stroke-linecap="round" opacity="0.8"/><line x1="201.0" y1="133.0" x2="198.0" y2="145.0" stroke="#e3eef7" stroke-width="1.2" stroke-linecap="round" opacity="0.8"/><line x1="254.0" y1="170.0" x2="251.0" y2="182.0" stroke="#e3eef7" stroke-width="1.2" stroke-linecap="round" opacity="0.8"/><line x1="307.0" y1="21.0" x2="304.0" y2="33.0" stroke="#e3eef7" stroke-width="1.2" stroke-linecap="round" opacity="0.8"/><line x1="360.0" y1="58.0" x2="357.0" y2="70.0" stroke="#e3eef7" stroke-width="1.2" stroke-linecap="round" opacity="0.8"/><line x1="13.0" y1="95.0" x2="10.0" y2="107.0" stroke="#e3eef7" stroke-width="1.2" stroke-linecap="round" opacity="0.8"/><line x1="66.0" y1="132.0" x2="63.0" y2="144.0" stroke="#e3eef7" stroke-width="1.2" stroke-linecap="round" opacity="0.8"/><line x1="119.0" y1="169.0" x2="116.0" y2="181.0" stroke="#e3eef7" stroke-width="1.2" stroke-linecap="round" opacity="0.8"/><rect x="0.0" y="160.0" width="400.0" height="120.0" rx="0" fill="#a3988c" /><rect x="0.0" y="180.0" width="400.0" height="8.0" rx="0" fill="#5a5550" /><rect x="10.0" y="188.0" width="5.0" height="60.0" rx="0" fill="#5a5550" /><rect x="39.0" y="188.0" width="5.0" height="60.0" rx="0" fill="#5a5550" /><rect x="68.0" y="188.0" width="5.0" height="60.0" rx="0" fill="#5a5550" /><rect x="97.0" y="188.0" width="5.0" height="60.0" rx="0" fill="#5a5550" /><rect x="126.0" y="188.0" width="5.0" height="60.0" rx="0" fill="#5a5550" /><rect x="155.0" y="188.0" width="5.0" height="60.0" rx="0" fill="#5a5550" /><rect x="184.0" y="188.0" width="5.0" height="60.0" rx="0" fill="#5a5550" /><rect x="213.0" y="188.0" width="5.0" height="60.0" rx="0" fill="#5a5550" /><rect x="242.0" y="188.0" width="5.0" height="60.0" rx="0" fill="#5a5550" /><rect x="271.0" y="188.0" width="5.0" height="60.0" rx="0" fill="#5a5550" /><rect x="300.0" y="188.0" width="5.0" height="60.0" rx="0" fill="#5a5550" /><rect x="329.0" y="188.0" width="5.0" height="60.0" rx="0" fill="#5a5550" /><rect x="358.0" y="188.0" width="5.0" height="60.0" rx="0" fill="#5a5550" /><rect x="387.0" y="188.0" width="5.0" height="60.0" rx="0" fill="#5a5550" /><rect x="0.0" y="245.0" width="400.0" height="35.0" rx="0" fill="#8a8178" /><rect x="199.8" y="99.4" width="40.3" height="46.8" rx="14.4" fill="#2a1a14" /><rect x="205.0" y="191.0" width="13.0" height="94.0" rx="2" fill="#3a4a6b" /><rect x="222.0" y="191.0" width="13.0" height="94.0" rx="2" fill="#3a4a6b" /><ellipse cx="211.0" cy="285.0" rx="9.0" ry="3.6" fill="#2a2a2a" /><ellipse cx="229.0" cy="285.0" rx="9.0" ry="3.6" fill="#2a2a2a" /><path d="M196.0 129.0 L244.0 129.0 L241.6 197.0 L198.4 197.0 Z" fill="#b8a0d8" /><path d="M197.2 132.0 Q185.6 170.0 186.0 203.0" fill="none" stroke="#b8a0d8" stroke-width="10.0" stroke-linecap="round" stroke-linejoin="round" /><circle cx="186.0" cy="203.0" r="5.5" fill="#c98a5e" /><path d="M242.8 132.0 Q254.4 170.0 254.0 203.0" fill="none" stroke="#b8a0d8" stroke-width="10.0" stroke-linecap="round" stroke-linejoin="round" /><circle cx="254.0" cy="203.0" r="5.5" fill="#c98a5e" /><rect x="214.6" y="115.6" width="10.8" height="15.2" rx="0" fill="#c98a5e" /><circle cx="220.0" cy="103.0" r="18.0" fill="#c98a5e" /><circle cx="220.0" cy="102.1" r="19.1" fill="#2a1a14" /><rect x="200.9" y="103.0" width="38.2" height="39.6" rx="10.799999999999999" fill="#2a1a14" /><rect x="272.0" y="170.0" width="18.0" height="20.0" rx="3" fill="#f5f1ea" /><circle cx="270.0" cy="182.0" r="6.0" fill="#c98a5e" /><path d="M276 166 q3 -8 0 -14 M284 166 q3 -8 0 -14" fill="none" stroke="#ffffff" stroke-width="1.5" stroke-linecap="round" stroke-linejoin="round" opacity="0.6"/><rect x="25.0" y="220.0" width="30.0" height="30.0" rx="3" fill="#c4683a" /><circle cx="40.0" cy="210.0" r="18.0" fill="#4caf50" /></g></svg>