<svg xmlns="http://www.w3.org/2000/svg" viewBox="0 0 400 280" width="400" height="280" role="img" preserveAspectRatio="xMidYMid slice"><title>Rohan dressed up for a friend&#39;s wedding</title><clipPath id="c"><rect width="400" height="280"/></clipPath><g clip-path="url(#c)"><rect x="0.0" y="0.0" width="400.0" height="280.0" rx="0" fill="#3a1f3d" /><path d="M0 20 Q50.0 32 100.0 20 Q150.0 32 200.0 20 Q250.0 32 300.0 20 Q350.0 32 400.0 20" fill="none" stroke="#5a3a5d" stroke-width="1.2" stroke-linecap="round" stroke-linejoin="round" /><circle cx="20.0" cy="26.8" r="3.0" fill="#ffd166" /><circle cx="60.0" cy="28.8" r="3.0" fill="#ffd166" /><circle cx="100.0" cy="23.0" r="3.0" fill="#ffd166" /><circle cx="140.0" cy="28.8" r="3.0" fill="#ffd166" /><circle cx="180.0" cy="26.8" r="3.0" fill="#ffd166" /><circle cx="220.0" cy="26.8" r="3.0" fill="#ffd166" /><circle cx="260.0" cy="28.8" r="3.0" fill="#ffd166" /><circle cx="300.0" cy="23.0" r="3.0" fill="#ffd166" /><circle cx="340.0" cy="28.8" r="3.0" fill="#ffd166" /><circle cx="380.0" cy="26.8" r="3.0" fill="#ffd166" /><path d="M0 55 Q50.0 67 100.0 55 Q150.0 67 200.0 55 Q250.0 67 300.0 55 Q350.0 67 400.0 55" fill="none" stroke="#5a3a5d" stroke-width="1.2" stroke-linecap="round" stroke-linejoin="round" /><circle cx="20.0" cy="61.8" r="3.0" fill="#ff9fcf" /><circle cx="60.0" cy="63.8" r="3.0" fill="#ff9fcf" /><circle cx="100.0" cy="58.0" r="3.0" fill="#ff9fcf" /><circle cx="140.0" cy="63.8" r="3.0" fill="#ff9fcf" /><circle cx="180.0" cy="61.8" r="3.0" fill="#ff9fcf" /><circle cx="220.0" cy="61.8" r="3.0" fill="#ff9fcf" /><circle cx="260.0" cy="63.8" r="3.0" fill="#ff9fcf" /><circle cx="300.0" cy="58.0" r="3.0" fill="#ff9fcf" /><circle cx="340.0" cy="63.8" r="3.0" fill="#ff9fcf" /><circle cx="380.0" cy="61.8" r="3.0" fill="#ff9fcf" /><line x1="20.0" y1="0.0" x2="20.0" y2="90.0" stroke="#ff9f1c" stroke-width="3" stroke-linecap="round" /><circle cx="20.0" cy="92.0" r="5.0" fill="#ffd166" /><line x1="65.0" y1="0.0" x2="65.0" y2="90.0" stroke="#ff9f1c" stroke-width="3" stroke-linecap="round" /><circle cx="65.0" cy="92.0" r="5.0" fill="#ffd166" /><line x1="110.0" y1="0.0" x2="110.0" y2="90.0" stroke="#ff9f1c" stroke-width="3" stroke-linecap="round" /><circle cx="110.0" cy="92.0" r="5.0" fill="#ffd166" /><line x1="155.0" y1="0.0" x2="155.0" y2="90.0" stroke="#ff9f1c" stroke-width="3" stroke-linecap="round" /><circle cx="155.0" cy="92.0" r="5.0" fill="#ffd166" /><line x1="200.0" y1="0.0" x2="200.0" y2="90.0" stroke="#ff9f1c" stroke-width="3" stroke-linecap="round" /><circle cx="200.0" cy="92.0" r="5.0" fill="#ffd166" /><line x1="245.0" y1="0.0" x2="245.0" y2="90.0" stroke="#ff9f1c" stroke-width="3" stroke-linecap="round" /><circle cx="245.0" cy="92.0" r="5.0" fill="#ffd166" /><line x1="290.0" y1="0.0" x2="290.0" y2="90.0" stroke="#ff9f1c" stroke-width="3" stroke-linecap="round" /><circle cx="290.0" cy="92.0" r="5.0" fill="#ffd166" /><line x1="335.0" y1="0.0" x2="335.0" y2="90.0" stroke="#ff9f1c" stroke-width="3" stroke-linecap="round" /><circle cx="335.0" cy="92.0" r="5.0" fill="#ffd166" /><line x1="380.0" y1="0.0" x2="380.0" y2="90.0" stroke="#ff9f1c" stroke-width="3" stroke-linecap="round" /><circle cx="380.0" cy="92.0" r="5.0" fill="#ffd166" /><rect x="0.0" y="225.0" width="400.0" height="55.0" rx="0" fill="#6b2d3a" /><ellipse cx="70.0" cy="160.0" rx="40.0" ry="60.0" fill="#5a3a5d" /><ellipse cx="330.0" cy="160.0" rx="40.0" ry="60.0" fill="#5a3a5d" /><rect x="185.4" y="173.4" width="12.7" height="91.6" rx="2" fill="#f3e3c8" /><rect x="201.9" y="173.4" width="12.7" height="91.6" rx="2" fill="#f3e3c8" /><ellipse cx="191.2" cy="265.0" rx="8.8" ry="3.5" fill="#2a2a2a" /><ellipse cx="208.8" cy="265.0" rx="8.8" ry="3.5" fill="#2a2a2a" /><path d="M176.6 112.89999999999999 L223.4 112.89999999999999 L226.91 222.1 L173.09 222.1 Z" fill="#f3e3c8" /><circle cx="200.0" cy="120.7" r="1.6" fill="#ffd166" /><circle cx="200.0" cy="128.5" r="1.6" fill="#ffd166" /><circle cx="200.0" cy="136.3" r="1.6" fill="#ffd166" /><circle cx="200.0" cy="144.1" r="1.6" fill="#ffd166" /><line x1="200.0" y1="112.9" x2="200.0" y2="146.1" stroke="#00000030" stroke-width="1" stroke-linecap="round" /><path d="M177.77 115.82499999999999 Q169.38500000000002 145.07500000000002 172.7 169.45000000000002" fill="none" stroke="#f3e3c8" stroke-width="9.75" stroke-linecap="round" stroke-linejoin="round" /><circle cx="172.7" cy="169.5" r="5.4" fill="#b5784e" /><path d="M222.23 115.82499999999999 Q230.61499999999998 145.07500000000002 227.3 169.45000000000002" fill="none" stroke="#f3e3c8" stroke-width="9.75" stroke-linecap="round" stroke-linejoin="round" /><circle cx="227.3" cy="169.5" r="5.4" fill="#b5784e" /><rect x="194.7" y="99.8" width="10.5" height="14.8" rx="0" fill="#b5784e" /><circle cx="200.0" cy="87.5" r="17.6" fill="#b5784e" /><path d="M182.099 86.6725 Q181.5725 64.735 200 66.139 Q218.4275 64.735 217.901 86.6725 Q214.04 76.669 200 75.967 Q185.96 76.669 182.099 86.6725 Z" fill="#2a1a14" /><circle cx="193.7" cy="88.4" r="1.8" fill="#2a1a14" /><circle cx="206.3" cy="88.4" r="1.8" fill="#2a1a14" /><path d="M194.735 94.57 Q200 99.484 205.265 94.57" fill="none" stroke="#7a2e2e" stroke-width="1.5795" stroke-linecap="round" stroke-linejoin="round" /><path d="M179.8175 85.795 Q177.185 59.47 200 60.3475 Q222.815 59.47 220.1825 85.795 Q200 78.77499999999999 179.8175 85.795 Z" fill="#e85d3a" /><path d="M182.45 77.02 Q200 66.49 217.55 77.02" fill="none" stroke="#ffd166" stroke-width="2.6325" stroke-linecap="round" stroke-linejoin="round" /><circle cx="203.5" cy="66.5" r="3.5" fill="#ffffff" /><path d="M187 120 L180 238" fill="none" stroke="#c0392b" stroke-width="7" stroke-linecap="round" stroke-linejoin="round" /></g></svg>